<svg width="20" height="20" viewBox="0 0 20 20" fill="none" xmlns="http://www.w3.org/2000/svg">
<path opacity="0.4" d="M18.3332 10.0001C18.3332 14.6025 14.6022 18.3334 9.99984 18.3334C5.39746 18.3334 1.6665 14.6025 1.6665 10.0001C1.6665 5.39771 5.39746 1.66675 9.99984 1.66675C14.6022 1.66675 18.3332 5.39771 18.3332 10.0001Z" fill="#DC6803"/>
<path fill-rule="evenodd" clip-rule="evenodd" d="M10 6.04175C10.3452 6.04175 10.625 6.32157 10.625 6.66675V7.50008C10.625 7.84526 10.3452 8.12508 10 8.12508C9.65482 8.12508 9.375 7.84526 9.375 7.50008V6.66675C9.375 6.32157 9.65482 6.04175 10 6.04175ZM10 8.95841C10.3452 8.95841 10.625 9.23824 10.625 9.58341V13.3334C10.625 13.6786 10.3452 13.9584 10 13.9584C9.65482 13.9584 9.375 13.6786 9.375 13.3334V9.58341C9.375 9.23824 9.65482 8.95841 10 8.95841Z" fill="#DC6803"/>
</svg>
